<svg width="64" height="64" viewBox="0 0 64 64" fill="none" xmlns="http://www.w3.org/2000/svg">
  <defs>
    <linearGradient id="bg" x1="8" y1="8" x2="56" y2="56" gradientUnits="userSpaceOnUse">
      <stop stop-color="#10B981" />
      <stop offset="1" stop-color="#0EA5E9" />
    </linearGradient>
  </defs>
  <rect x="4" y="4" width="56" height="56" rx="16" fill="url(#bg)" />
  <path
    d="M32 16C25.924 16 21 20.924 21 27C21 33.076 25.924 38 32 38C38.076 38 43 33.076 43 27C43 20.924 38.076 16 32 16ZM32 20C35.314 20 38 22.686 38 26C38 29.314 35.314 32 32 32C28.686 32 26 29.314 26 26C26 22.686 28.686 20 32 20Z"
    fill="white"
    fill-opacity="0.96"
  />
  <path
    d="M18 44.5C20.4 40.5 25.6 38 32 38C38.4 38 43.6 40.5 46 44.5C46.6 45.5 46.4 46.8 45.6 47.6C44.8 48.4 43.6 48.6 42.6 48C40.1 46.5 36.4 45.5 32 45.5C27.6 45.5 23.9 46.5 21.4 48C20.4 48.6 19.2 48.4 18.4 47.6C17.6 46.8 17.4 45.5 18 44.5Z"
    fill="white"
    fill-opacity="0.96"
  />
  <path
    d="M25.5 29.5C25.5 24.5 29 21 32.5 21"
    stroke="#DCFCE7"
    stroke-width="2.2"
    stroke-linecap="round"
  />
</svg>

